<?xml version="1.0" encoding="UTF-8" standalone="no"?>
<!-- Created with Inkscape (http://www.inkscape.org/) -->

<svg
   width="3000"
   height="750"
   viewBox="0 0 793.7501 198.43752"
   version="1.1"
   id="svg1"
   xml:space="preserve"
   sodipodi:docname="vias_logo.svg"
   inkscape:version="1.3.2 (091e20e, 2023-11-25, custom)"
   xmlns:inkscape="http://www.inkscape.org/namespaces/inkscape"
   xmlns:sodipodi="http://sodipodi.sourceforge.net/DTD/sodipodi-0.dtd"
   xmlns="http://www.w3.org/2000/svg"
   xmlns:svg="http://www.w3.org/2000/svg"><sodipodi:namedview
     id="namedview1"
     pagecolor="#ffffff"
     bordercolor="#666666"
     borderopacity="1.0"
     inkscape:showpageshadow="2"
     inkscape:pageopacity="0.0"
     inkscape:pagecheckerboard="0"
     inkscape:deskcolor="#d1d1d1"
     inkscape:document-units="mm"
     showgrid="false"
     inkscape:zoom="0.23638889"
     inkscape:cx="1605.4054"
     inkscape:cy="243.24324"
     inkscape:window-width="1920"
     inkscape:window-height="1017"
     inkscape:window-x="-8"
     inkscape:window-y="-8"
     inkscape:window-maximized="1"
     inkscape:current-layer="layer1" /><defs
     id="defs1" /><g
     inkscape:label="Ebene 1"
     inkscape:groupmode="layer"
     id="layer1"
     transform="translate(-194.18092,-207.78898)"><rect
       style="fill:#ffffff;stroke-width:2;stroke-linecap:round;stroke-linejoin:round;stroke-miterlimit:10"
       id="rect1"
       width="793.75"
       height="198.43747"
       x="194.18091"
       y="207.78899" /><g
       id="g6"
       transform="translate(250.58338,191.11266)"
       style="display:inline;fill:#222e35;fill-opacity:1"><path
         id="path1"
         style="fill:#222e35;fill-opacity:1"
         d="m 380.06133,37.487858 1.71565,3.764628 c 9.1901,-0.101947 18.44753,0.147927 22.68182,-2.347144 -2.13641,-1.961349 -14.16384,-1.091483 -24.39747,-1.417484 z m -79.1776,0.0047 c -10.23363,0.326 -22.26105,-0.543865 -24.39747,1.417484 4.2343,2.495071 13.49173,2.245197 22.68182,2.347144 z m 77.5839,0.01292 c -10.23363,0.326001 -22.26105,-0.543865 -24.39748,1.417484 4.23429,2.495071 13.49174,2.245197 22.68183,2.347144 z m -75.9902,0.0047 1.71566,3.764628 c 9.19008,-0.101947 18.44752,0.147927 22.68182,-2.347144 -2.13643,-1.961349 -14.16385,-1.091484 -24.39748,-1.417484 z m 83.60885,5.911267 -6.2699,0.05529 -6.2699,0.05529 0.0806,1.340487 0.0806,1.341003 -1.71979,0.177251 c -0.94588,0.09747 -3.6248,0.396181 -5.95313,0.664042 -3.76927,0.433629 -6.55356,0.487309 -25.39999,0.487309 h -0.22945 v 0.0046 h -0.0951 c -18.84643,0 -21.63072,-0.05368 -25.39999,-0.487308 -2.32833,-0.267861 -5.00725,-0.566573 -5.95312,-0.664042 l -1.71979,-0.177251 0.0806,-1.341003 0.0806,-1.340487 -6.2699,-0.05529 -6.2699,-0.05529 0.14882,1.637626 c 0.25608,2.824081 1.57778,3.971675 5.15059,4.472078 2.34755,0.328796 9.24658,1.942451 12.63541,2.955375 2.16498,0.647114 8.86054,3.136078 11.02103,4.096908 l 1.49655,0.665592 -1.5844,3.198772 c -1.74645,3.525874 -2.37723,5.068766 -4.08295,9.990088 -0.92614,2.672035 -1.20173,3.906193 -1.41801,6.35 -0.39237,4.43345 -0.34846,7.54334 0.11886,8.447029 0.98857,1.911682 2.95984,2.454678 3.81372,1.050582 0.55493,-0.912515 0.6911,-1.769567 1.08934,-6.86108 0.43272,-5.532456 1.74131,-10.10512 4.1646,-14.552083 1.08202,-1.985611 2.65888,-4.233334 2.96985,-4.233334 0.11735,0 0.28465,0.282813 0.37155,0.628903 0.22809,0.908759 2.95875,3.582888 4.23437,4.146517 0.59876,0.264558 1.71389,0.563984 2.47788,0.665075 l 1.38907,0.183968 h 1.68465 v -0.0047 H 342.09 l 1.38906,-0.183968 c 0.76399,-0.101091 1.87913,-0.400517 2.47789,-0.665075 1.27562,-0.563629 4.00628,-3.237758 4.23437,-4.146517 0.0869,-0.34609 0.2542,-0.628902 0.37155,-0.628902 0.31096,0 1.88782,2.247722 2.96984,4.233333 2.4233,4.446963 3.73189,9.019627 4.16461,14.552083 0.39824,5.091513 0.53441,5.948565 1.08934,6.86108 0.85388,1.404096 2.82515,0.8611 3.81372,-1.050582 0.46732,-0.903689 0.51123,-4.013579 0.11885,-8.447029 -0.21629,-2.443807 -0.49186,-3.677965 -1.418,-6.35 -1.70574,-4.921321 -2.33652,-6.464214 -4.08295,-9.990088 l -1.5844,-3.198771 1.49655,-0.665593 c 2.16048,-0.96083 8.85605,-3.449794 11.02103,-4.096907 3.38883,-1.012924 10.28786,-2.62658 12.6354,-2.955376 3.57281,-0.500403 4.89451,-1.647997 5.15059,-4.472078 z" /><path
         d="m 330.96887,88.69573 c -0.21156,-0.10629 -0.49757,-0.36226 -0.63556,-0.56883 l -0.2509,-0.37558 v -9.30728 -9.30728 l 0.2509,-0.37558 c 0.49959,-0.74785 0.58827,-0.76208 4.75068,-0.76227 l 3.73046,-1.7e-4 v 3.76903 c 0,3.24849 0.0248,3.82124 0.17943,4.14713 0.55453,1.1686 2.23661,1.21868 2.88603,0.0859 0.24218,-0.42244 0.24691,-0.50256 0.24869,-4.21636 l 0.002,-3.78573 3.73047,1.7e-4 c 4.1624,1.9e-4 4.25108,0.0144 4.75068,0.76227 l 0.2509,0.37558 v 9.30728 9.30728 l -0.2509,0.37558 c -0.53763,0.80478 0.0303,0.76209 -10.13913,0.76209 -8.46123,0 -9.14665,-0.0139 -9.50357,-0.19326 z"
         style="fill:#222e35;fill-opacity:1;stroke-width:1"
         id="path1-8" /></g><path
       id="rect2"
       style="display:inline;fill:#222e35;fill-opacity:1;stroke:none;stroke-width:2;stroke-linecap:round;stroke-linejoin:round;stroke-miterlimit:10"
       d="m 515.31847,272.7941 15.23184,11.78266 v 51.03184 h -15.23184 z"
       sodipodi:nodetypes="ccccc" /><path
       id="rect3"
       style="display:inline;fill:#222e35;fill-opacity:1;stroke:none;stroke-width:2;stroke-linecap:round;stroke-linejoin:round;stroke-miterlimit:10"
       d="m 656.65089,281.71729 v 16.68787 h -5.18935 v 37.20341 h 15.23163 v -37.20341 h -5.18934 v -16.68787 z" /><path
       id="rect4"
       style="display:inline;fill:#222e35;fill-opacity:1;stroke:none;stroke-width:2;stroke-linecap:round;stroke-linejoin:round;stroke-miterlimit:10"
       d="m 535.76121,292.60897 12.232,8.57697 v 34.42265 h -12.232 z"
       sodipodi:nodetypes="ccccc" /><path
       id="rect5"
       style="display:inline;fill:#222e35;fill-opacity:1;stroke:none;stroke-width:2;stroke-linecap:round;stroke-linejoin:round;stroke-miterlimit:10"
       d="m 634.01861,289.01451 12.232,-12.06228 v 58.65637 h -12.232 z"
       sodipodi:nodetypes="ccccc" /><path
       id="rect6"
       style="display:inline;fill:#222e35;fill-opacity:1;stroke:none;stroke-width:2;stroke-linecap:round;stroke-linejoin:round;stroke-miterlimit:10"
       d="m 553.20411,304.83978 11.532,8.08613 v 22.68269 h -11.532 z"
       sodipodi:nodetypes="ccccc" /><path
       id="rect7"
       style="display:inline;fill:#222e35;fill-opacity:1;stroke:none;stroke-width:2;stroke-linecap:round;stroke-linejoin:round;stroke-miterlimit:10"
       d="m 617.2757,305.52512 11.532,-11.372 v 41.45547 h -11.532 z"
       sodipodi:nodetypes="ccccc" /><path
       id="rect8"
       style="display:inline;fill:#222e35;fill-opacity:1;stroke:none;stroke-width:2;stroke-linecap:round;stroke-linejoin:round;stroke-miterlimit:10"
       d="m 569.94701,316.57976 10.832,7.5953 v 11.43353 h -10.832 z"
       sodipodi:nodetypes="ccccc" /><path
       id="rect9"
       style="display:inline;fill:#222e35;fill-opacity:1;stroke:none;stroke-width:2;stroke-linecap:round;stroke-linejoin:round;stroke-miterlimit:10"
       d="m 601.33281,321.24682 10.732,-10.5831 v 24.94489 h -10.732 z"
       sodipodi:nodetypes="ccccc" /><path
       id="rect10"
       style="display:inline;fill:#222e35;fill-opacity:1;stroke:none;stroke-width:2;stroke-linecap:round;stroke-linejoin:round;stroke-miterlimit:10"
       d="m 586.70891,290.62062 v 5.35833 h -0.71882 v 39.62962 h 10.13168 v -39.62962 h -0.71882 v -5.35833 z" /><path
       id="path17"
       style="display:inline;fill:#4793a9;fill-opacity:1;stroke:none;stroke-width:0.264583px;stroke-linecap:butt;stroke-linejoin:miter;stroke-opacity:1"
       d="m 535.761,254.41858 v 11.52694 l 45.01792,43.50949 v -10.63088 z" /><path
       id="rect18"
       style="display:inline;fill:#222e35;fill-opacity:1;stroke:none;stroke-width:2;stroke-linecap:round;stroke-linejoin:round;stroke-miterlimit:10"
       d="m 520.96305,256.14675 v 10.51409 h -2.58692 v 5.09685 l 9.11675,6.92774 v -12.02459 h -2.58692 v -10.51409 z" /><path
       id="path3"
       style="display:inline;fill:#4793a9;fill-opacity:1;stroke:none;stroke-width:0.264583px;stroke-linecap:butt;stroke-linejoin:miter;stroke-opacity:1"
       d="m 535.761,273.96157 v 11.26339 l 45.01792,35.2919 v -5.35161 z" /><path
       id="path6"
       style="display:inline;fill:#4793a9;fill-opacity:1;stroke:none;stroke-width:0.264583px;stroke-linecap:butt;stroke-linejoin:miter;stroke-opacity:1"
       d="m 666.69317,234.54239 -65.22806,64.28186 v 10.63088 l 65.22806,-63.25196 z" /><path
       style="font-weight:bold;font-size:60.0118px;line-height:1.25;font-family:Bahnschrift;-inkscape-font-specification:'Bahnschrift Bold';font-variant-ligatures:none;letter-spacing:9.79604px;word-spacing:0px;fill:#222e35;stroke-width:0.264583"
       d="m 514.97851,342.62379 h 8.26335 l 9.05451,28.42356 9.05451,-28.42356 h 8.26335 l -14.18248,42.60604 h -6.27076 z m 57.44213,42.60604 h -8.32195 v -42.60604 h 8.32195 z m 30.19067,-42.60604 h 5.09866 l 16.29227,42.60604 h -8.64428 l -10.19732,-29.09752 -10.19732,29.09752 h -8.64427 z m -8.46846,28.04263 h 22.41652 v 7.73589 h -22.41652 z m 55.97699,15.00295 q -3.04747,0 -5.97774,-0.61536 -2.90096,-0.61535 -5.47959,-1.78746 -2.54933,-1.20141 -4.57121,-2.87166 v 0 l 3.72143,-6.62239 v 0 q 2.46143,2.02188 5.68472,3.13538 3.22329,1.0842 6.62239,1.0842 3.92656,0 6.09495,-1.31862 2.1684,-1.34792 2.1684,-3.78004 v -0.0293 q 0,-1.69956 -0.96699,-2.69585 -0.96699,-0.99629 -2.52003,-1.46513 -1.55304,-0.46884 -3.98516,-0.84978 -0.0879,-0.0293 -0.17581,-0.0293 -0.0586,0 -0.14652,-0.0293 l -0.64465,-0.0879 q -4.27819,-0.67396 -7.09124,-1.67025 -2.81305,-1.02559 -4.77633,-3.54562 -1.96328,-2.54933 -1.96328,-7.20845 v -0.0293 q 0,-4.13167 1.84607,-7.06193 1.84606,-2.93027 5.36238,-4.454 3.51632,-1.55304 8.49776,-1.55304 2.28561,0 4.65912,0.52744 2.40282,0.52745 4.68843,1.52374 2.2856,0.99629 4.33679,2.40282 v 0 l -3.39911,6.79821 v 0 q -2.46142,-1.69956 -5.15726,-2.63724 -2.66654,-0.93768 -5.12797,-0.93768 -3.69213,0 -5.71401,1.23071 -2.02188,1.2014 -2.02188,3.3991 v 0.0293 q 0,1.84606 1.05489,2.93026 1.0549,1.05489 2.60794,1.55304 1.55304,0.49814 4.36609,1.05489 0.11721,0.0293 0.23442,0.0586 0.11721,0 0.23442,0.0293 0.17582,0.0293 0.32233,0.0879 0.17582,0.0293 0.35163,0.0586 4.04377,0.79118 6.73961,1.93398 2.72515,1.1135 4.54191,3.63353 1.81676,2.49072 1.81676,6.82751 v 0.0586 q 0,4.07307 -1.90467,6.97403 -1.90467,2.90096 -5.5675,4.4247 -3.63353,1.52374 -8.76149,1.52374 z"
       id="text6"
       transform="scale(1.0006601,0.99934034)"
       aria-label="VIAS" /></g></svg>
